<svg width="228" height="106" viewBox="0 0 228 106" fill="none" xmlns="http://www.w3.org/2000/svg">
<path d="M215.485 105.528C213.551 105.448 211.788 104.665 210.991 103.452C210.954 103.395 210.919 103.337 210.886 103.279C210.594 102.762 210.504 102.168 210.822 101.659C211.14 101.149 211.935 100.763 212.734 100.843C213.532 100.923 214.156 101.562 213.825 102.067C213.751 101.046 213.691 99.9724 214.512 99.0831C214.964 98.6184 215.554 98.3127 216.194 98.2117C217.848 97.9198 218.947 98.8582 219.167 99.8058C219.33 100.505 219.105 101.217 218.882 101.908C219.57 101.092 221.207 100.729 222.461 101.114C223.715 101.5 224.41 102.58 223.982 103.476C223.477 104.532 221.795 105.078 220.233 105.366C218.942 105.604 217.008 105.591 215.485 105.528Z" fill="#F2F2F2"/>
<path d="M148.131 105.528C146.196 105.448 144.434 104.665 143.637 103.452C143.599 103.395 143.564 103.337 143.531 103.279C143.24 102.762 143.149 102.168 143.467 101.659C143.786 101.149 144.581 100.763 145.379 100.843C146.178 100.923 146.801 101.562 146.471 102.067C146.397 101.046 146.336 99.9724 147.158 99.0831C147.61 98.6184 148.2 98.3127 148.839 98.2117C150.494 97.9198 151.593 98.8582 151.813 99.8058C151.975 100.505 151.751 101.217 151.528 101.908C152.216 101.092 153.853 100.729 155.107 101.114C156.36 101.5 157.056 102.58 156.627 103.476C156.123 104.532 154.441 105.078 152.878 105.366C151.588 105.604 149.653 105.591 148.131 105.528Z" fill="#F2F2F2"/>
<path d="M86.0375 44H72.1625C71.0589 43.9988 70.0009 43.5638 69.2205 42.7905C68.4402 42.0171 68.0012 40.9686 68 39.875V14.125C68.0012 13.0314 68.4402 11.9829 69.2205 11.2095C70.0009 10.4362 71.0589 10.0012 72.1625 10H86.0375C87.1411 10.0012 88.1991 10.4362 88.9795 11.2095C89.7598 11.9829 90.1988 13.0314 90.2 14.125V39.875C90.1988 40.9686 89.7598 42.0171 88.9795 42.7905C88.1991 43.5638 87.1411 43.9988 86.0375 44Z" fill="#F2F2F2"/>
<path d="M171.365 102.756H168.272L166.801 90.7929L171.365 90.7932L171.365 102.756Z" fill="#A0616A"/>
<path d="M172.153 105.763L162.181 105.762V105.636C162.181 105.125 162.282 104.618 162.477 104.146C162.672 103.674 162.958 103.245 163.318 102.883C163.678 102.522 164.106 102.235 164.577 102.04C165.048 101.844 165.553 101.743 166.063 101.743H166.063L172.153 101.744L172.153 105.763Z" fill="#2F2E41"/>
<path d="M205.914 99.8543L202.998 100.889L197.629 90.1056L201.931 88.5775L205.914 99.8543Z" fill="#A0616A"/>
<path d="M207.658 102.424L198.258 105.763L198.216 105.643C198.045 105.162 197.972 104.651 197.998 104.14C198.025 103.63 198.152 103.13 198.371 102.668C198.59 102.207 198.898 101.793 199.277 101.451C199.656 101.109 200.098 100.845 200.579 100.675L200.579 100.675L206.32 98.6356L207.658 102.424Z" fill="#2F2E41"/>
<path d="M171.278 98.7394C171.209 98.7393 171.14 98.733 171.072 98.7206L167.29 98.0311C167.032 97.9833 166.799 97.8482 166.629 97.6485C166.459 97.4487 166.363 97.1964 166.357 96.9339C165.807 71.4043 168.51 54.2484 174.39 41.9516C174.494 41.734 174.666 41.5557 174.879 41.4427C175.092 41.3298 175.335 41.2881 175.573 41.3238L189.173 43.2928C189.421 43.329 189.651 43.4466 189.825 43.6272C190 43.8079 190.11 44.0414 190.139 44.2914L191.338 54.8922C191.344 54.9494 191.356 55.0059 191.374 55.0607L204.413 94.24C204.502 94.5251 204.476 94.8338 204.341 95.1001C204.206 95.3663 203.972 95.5689 203.69 95.6646L200.166 96.8425C199.907 96.9279 199.626 96.9173 199.374 96.8125C199.121 96.7078 198.915 96.5159 198.792 96.2716L181.154 62.919C181.119 62.8489 181.063 62.7913 180.994 62.7543C180.925 62.7172 180.847 62.7025 180.769 62.7122C180.691 62.7219 180.619 62.7555 180.561 62.8084C180.503 62.8613 180.463 62.9308 180.446 63.0075L172.383 97.8446C172.329 98.0979 172.19 98.3249 171.989 98.4877C171.787 98.6505 171.537 98.7393 171.278 98.7394Z" fill="#2F2E41"/>
<path d="M160.53 21.2752C160.561 21.4117 160.581 21.5505 160.59 21.6901L171.427 27.9596L174.061 26.4389L176.869 30.1255L172.467 33.2719C172.111 33.5261 171.683 33.6578 171.246 33.6471C170.81 33.6364 170.389 33.484 170.046 33.2128L158.871 24.3721C158.367 24.5593 157.818 24.5881 157.297 24.4546C156.776 24.3212 156.308 24.0318 155.955 23.6251C155.602 23.2183 155.38 22.7134 155.32 22.1774C155.261 21.6415 155.365 21.1 155.619 20.6249C155.874 20.1499 156.266 19.7638 156.745 19.5179C157.224 19.2721 157.766 19.1783 158.299 19.2489C158.832 19.3195 159.331 19.5512 159.729 19.9131C160.128 20.2751 160.407 20.7502 160.53 21.2752Z" fill="#A0616A"/>
<path d="M171.576 27.3329C171.608 27.1726 171.675 27.0213 171.771 26.8892C171.868 26.7571 171.991 26.6474 172.134 26.5676L177.107 23.779C177.767 23.2675 178.603 23.0397 179.431 23.1454C180.259 23.2511 181.012 23.6818 181.523 24.343C182.035 25.0042 182.265 25.842 182.162 26.6726C182.058 27.5032 181.631 28.2589 180.973 28.774L177.008 32.903C176.895 33.0208 176.758 33.1128 176.606 33.1727C176.454 33.2325 176.291 33.2589 176.128 33.25C175.965 33.241 175.806 33.197 175.662 33.1208C175.518 33.0447 175.391 32.9382 175.292 32.8087L171.789 28.2565C171.69 28.127 171.619 27.9775 171.582 27.8181C171.545 27.6587 171.543 27.4932 171.576 27.3329Z" fill="#8263FF"/>
<path d="M183.156 20.6502C186.578 20.6502 189.352 17.8683 189.352 14.4367C189.352 11.0051 186.578 8.22318 183.156 8.22318C179.734 8.22318 176.96 11.0051 176.96 14.4367C176.96 17.8683 179.734 20.6502 183.156 20.6502Z" fill="#A0616A"/>
<path d="M189.19 44.6183C189.128 44.6182 189.067 44.6132 189.006 44.6032L175.597 42.3987C175.446 42.3738 175.301 42.3184 175.171 42.2357C175.042 42.153 174.93 42.0449 174.844 41.9178C174.757 41.7907 174.697 41.6473 174.667 41.4963C174.637 41.3453 174.639 41.1898 174.67 41.0392L175.323 37.955C174.989 37.4554 172.27 33.1115 175.581 29.0311C175.518 27.5816 176.021 26.1644 176.984 25.0814C177.947 23.9983 179.293 23.3349 180.736 23.2323L187.666 22.7043C188.557 22.6365 189.452 22.7844 190.274 23.1355C191.097 23.4867 191.823 24.0308 192.392 24.7222C192.961 25.4135 193.357 26.2319 193.545 27.1084C193.733 27.9848 193.708 28.8938 193.473 29.7587L190.296 43.7328C190.239 43.9841 190.098 44.2084 189.897 44.3692C189.696 44.53 189.447 44.6178 189.19 44.6183Z" fill="#8263FF"/>
<path d="M201.711 56.3036C201.938 55.9782 202.092 55.6069 202.161 55.2156C202.229 54.8243 202.212 54.4227 202.109 54.0389C202.007 53.6552 201.821 53.2987 201.566 52.9946C201.311 52.6905 200.993 52.4461 200.634 52.2787L192.999 28.7394L188.575 30.8448L196.928 53.7647C196.688 54.3887 196.684 55.0794 196.917 55.706C197.151 56.3326 197.606 56.8515 198.195 57.1645C198.785 57.4774 199.468 57.5626 200.116 57.404C200.764 57.2453 201.332 56.8538 201.711 56.3036Z" fill="#A0616A"/>
<path d="M194.688 32.6585L188.813 34.4382C188.646 34.4888 188.47 34.5028 188.297 34.479C188.124 34.4552 187.958 34.3944 187.811 34.3005C187.663 34.2067 187.538 34.0821 187.443 33.9352C187.347 33.7883 187.285 33.6226 187.26 33.4494L186.368 27.3791C186.114 26.5198 186.21 25.5947 186.636 24.8066C187.061 24.0185 187.781 23.4317 188.637 23.1751C189.493 22.9185 190.416 23.0129 191.203 23.4376C191.99 23.8624 192.576 24.5827 192.834 25.4408L195.436 30.9725C195.51 31.1309 195.55 31.3035 195.552 31.4786C195.553 31.6537 195.518 31.8272 195.447 31.9872C195.376 32.1472 195.271 32.29 195.14 32.4058C195.009 32.5217 194.855 32.6078 194.688 32.6585H194.688Z" fill="#8263FF"/>
<path d="M177.134 14.6767C178.509 15.2024 180.006 15.3206 181.447 15.0172C182.887 14.7138 184.211 14.0016 185.259 12.9654C184.609 14.6873 184.791 21.9904 184.791 21.9904C184.791 21.9904 190.554 19.2463 191.336 18.7664C195.955 15.932 189.585 3.6019 184.286 5.54644C183.389 5.8758 182.639 6.26333 182.276 7.14982C181.485 6.17109 179.988 5.95881 178.836 6.46152C177.684 6.96424 176.865 8.05366 176.424 9.23368C176.077 10.1859 175.941 11.203 176.028 12.2133C176.115 13.2236 176.422 14.2025 176.927 15.081L177.134 14.6767Z" fill="black"/>
<path d="M150.097 0H8.32471C6.11753 0.00217272 4.00136 0.882436 2.44065 2.4476C0.87993 4.01277 0.00216654 6.13497 0 8.34845V47.3079C0.00216654 49.5214 0.87993 51.6436 2.44065 53.2087C4.00136 54.7739 6.11753 55.6542 8.32471 55.6563H150.097C152.304 55.6542 154.42 54.7739 155.981 53.2087C157.542 51.6436 158.42 49.5214 158.422 47.3079V8.34845C158.42 6.13497 157.542 4.01277 155.981 2.4476C154.42 0.882436 152.304 0.00217272 150.097 0ZM157.917 47.3079C157.915 49.387 157.09 51.3803 155.624 52.8504C154.158 54.3206 152.17 55.1477 150.097 55.1504H8.32471C6.25148 55.1477 4.26393 54.3206 2.79793 52.8504C1.33193 51.3803 0.507174 49.387 0.504528 47.3079V8.34845C0.507174 6.26931 1.33193 4.27608 2.79793 2.80591C4.26393 1.33573 6.25148 0.50862 8.32471 0.505967H150.097C152.17 0.50862 154.158 1.33573 155.624 2.80591C157.09 4.27608 157.915 6.26931 157.917 8.34845V47.3079Z" fill="#3B0069"/>
<path d="M22.3885 36.8091C21.7898 36.8091 21.2045 36.631 20.7067 36.2975C20.2089 35.9639 19.8209 35.4898 19.5918 34.935C19.3626 34.3803 19.3027 33.7699 19.4195 33.181C19.5363 32.5921 19.8246 32.0512 20.248 31.6266C20.6713 31.2021 21.2107 30.913 21.7979 30.7958C22.3851 30.6787 22.9938 30.7388 23.5469 30.9686C24.1001 31.1983 24.5729 31.5875 24.9055 32.0867C25.2381 32.5859 25.4157 33.1729 25.4157 33.7733C25.4148 34.5781 25.0955 35.3498 24.528 35.9189C23.9605 36.488 23.1911 36.8082 22.3885 36.8091ZM22.3885 31.2435C21.8896 31.2435 21.4018 31.3918 20.987 31.6698C20.5722 31.9478 20.2488 32.3429 20.0579 32.8052C19.867 33.2674 19.817 33.7761 19.9143 34.2668C20.0117 34.7576 20.2519 35.2083 20.6047 35.5622C20.9575 35.916 21.407 36.1569 21.8964 36.2545C22.3857 36.3521 22.8929 36.302 23.3539 36.1105C23.8148 35.9191 24.2088 35.5948 24.486 35.1788C24.7632 34.7628 24.9111 34.2736 24.9111 33.7733C24.9104 33.1026 24.6444 32.4595 24.1714 31.9853C23.6985 31.511 23.0573 31.2442 22.3885 31.2435Z" fill="#3B0069"/>
<path d="M22.2891 29.9785C22.2222 29.9785 22.1581 29.9519 22.1108 29.9044C22.0634 29.857 22.0369 29.7926 22.0369 29.7255V26.8162C22.0369 26.7491 22.0634 26.6848 22.1108 26.6373C22.1581 26.5899 22.2222 26.5632 22.2891 26.5632C22.356 26.5632 22.4202 26.5899 22.4675 26.6373C22.5148 26.6848 22.5414 26.7491 22.5414 26.8162V29.7255C22.5414 29.7926 22.5148 29.857 22.4675 29.9044C22.4202 29.9519 22.356 29.9785 22.2891 29.9785Z" fill="#3B0069"/>
<path d="M18.3523 33.9267H15.4512C15.3843 33.9267 15.3202 33.9 15.2729 33.8526C15.2256 33.8051 15.199 33.7408 15.199 33.6737C15.199 33.6066 15.2256 33.5423 15.2729 33.4948C15.3202 33.4474 15.3843 33.4207 15.4512 33.4207H18.3523C18.4192 33.4207 18.4833 33.4474 18.5307 33.4948C18.578 33.5423 18.6045 33.6066 18.6045 33.6737C18.6045 33.7408 18.578 33.8051 18.5307 33.8526C18.4833 33.9 18.4192 33.9267 18.3523 33.9267Z" fill="#3B0069"/>
<path d="M28.9473 33.9267H26.0462C25.9793 33.9267 25.9151 33.9 25.8678 33.8526C25.8205 33.8051 25.7939 33.7408 25.7939 33.6737C25.7939 33.6066 25.8205 33.5423 25.8678 33.4948C25.9151 33.4474 25.9793 33.4207 26.0462 33.4207H28.9473C29.0142 33.4207 29.0783 33.4474 29.1256 33.4948C29.1729 33.5423 29.1995 33.6066 29.1995 33.6737C29.1995 33.7408 29.1729 33.8051 29.1256 33.8526C29.0783 33.9 29.0142 33.9267 28.9473 33.9267Z" fill="#3B0069"/>
<path d="M25.9666 31.1605C25.9164 31.1605 25.8673 31.1455 25.8257 31.1174C25.784 31.0892 25.7517 31.0493 25.7328 31.0026C25.714 30.9559 25.7094 30.9047 25.7198 30.8554C25.7301 30.8061 25.7549 30.761 25.791 30.726L27.0059 29.5439C27.0539 29.4972 27.1184 29.4716 27.1853 29.4726C27.2522 29.4736 27.316 29.5012 27.3626 29.5494C27.4092 29.5975 27.4348 29.6623 27.4337 29.7294C27.4327 29.7965 27.4052 29.8604 27.3572 29.9071L26.1423 31.0891C26.0953 31.135 26.0322 31.1606 25.9666 31.1605Z" fill="#3B0069"/>
<path d="M18.558 31.1606C18.4924 31.1607 18.4293 31.135 18.3823 31.0892L17.1674 29.9071C17.1437 29.884 17.1247 29.8564 17.1115 29.8259C17.0984 29.7954 17.0914 29.7626 17.0908 29.7294C17.0903 29.6962 17.0964 29.6632 17.1086 29.6323C17.1208 29.6014 17.139 29.5732 17.162 29.5494C17.1851 29.5255 17.2126 29.5065 17.243 29.4933C17.2734 29.4801 17.3061 29.4731 17.3393 29.4726C17.3724 29.4721 17.4053 29.4781 17.4361 29.4904C17.4669 29.5026 17.495 29.5208 17.5187 29.5439L18.7336 30.726C18.7697 30.7611 18.7945 30.8061 18.8048 30.8554C18.8152 30.9047 18.8106 30.9559 18.7918 31.0026C18.7729 31.0493 18.7406 31.0893 18.6989 31.1174C18.6573 31.1455 18.6082 31.1606 18.558 31.1606Z" fill="#3B0069"/>
<path d="M17.5955 38.074C17.5459 38.074 17.4975 38.0593 17.4561 38.0318C17.4148 38.0044 17.3825 37.9653 17.3632 37.9195C17.3439 37.8737 17.3384 37.8232 17.3476 37.7744C17.3567 37.7255 17.38 37.6804 17.4145 37.6447L18.6294 36.3901C18.676 36.3419 18.7398 36.3143 18.8067 36.3133C18.8736 36.3124 18.9382 36.3381 18.9862 36.3848C19.0342 36.4316 19.0617 36.4955 19.0627 36.5626C19.0637 36.6297 19.038 36.6945 18.9914 36.7426L17.7765 37.9973C17.753 38.0216 17.7249 38.0409 17.6938 38.0541C17.6627 38.0672 17.6293 38.074 17.5955 38.074Z" fill="#3B0069"/>
<path d="M27.4337 38.327C27.4001 38.327 27.3667 38.3203 27.3357 38.3072C27.3047 38.2941 27.2767 38.2748 27.2532 38.2506L25.7861 36.743C25.7629 36.7192 25.7447 36.6911 25.7324 36.6603C25.7201 36.6294 25.714 36.5965 25.7144 36.5632C25.7148 36.53 25.7217 36.4972 25.7348 36.4667C25.7478 36.4362 25.7667 36.4085 25.7904 36.3853C25.8141 36.3621 25.8422 36.3438 25.8729 36.3315C25.9037 36.3192 25.9365 36.313 25.9697 36.3134C26.0028 36.3138 26.0355 36.3208 26.0659 36.3339C26.0964 36.347 26.124 36.3659 26.1471 36.3897L27.6142 37.8973C27.6489 37.933 27.6723 37.978 27.6816 38.0269C27.6908 38.0758 27.6855 38.1264 27.6662 38.1723C27.6469 38.2181 27.6146 38.2573 27.5732 38.2848C27.5319 38.3123 27.4834 38.327 27.4337 38.327Z" fill="#3B0069"/>
<path d="M22.2891 40.8568C22.2222 40.8568 22.1581 40.8302 22.1108 40.7827C22.0634 40.7353 22.0369 40.6709 22.0369 40.6038V37.6945C22.0369 37.6274 22.0634 37.5631 22.1108 37.5156C22.1581 37.4682 22.2222 37.4415 22.2891 37.4415C22.356 37.4415 22.4202 37.4682 22.4675 37.5156C22.5148 37.5631 22.5414 37.6274 22.5414 37.6945V40.6038C22.5414 40.6709 22.5148 40.7353 22.4675 40.7827C22.4202 40.8302 22.356 40.8568 22.2891 40.8568Z" fill="#3B0069"/>
<path d="M55.2871 38.58H46.866C46.0059 38.5654 45.1859 38.2125 44.5827 37.5973C43.9796 36.9821 43.6416 36.1539 43.6416 35.2912C43.6416 34.4284 43.9796 33.6002 44.5827 32.9851C45.1859 32.3699 46.0059 32.017 46.866 32.0024H47.5101C47.8295 31.3239 48.334 30.75 48.9652 30.3471C49.5963 29.9441 50.3284 29.7286 51.0765 29.7255C52.0939 29.7349 53.0695 30.1324 53.805 30.8373C54.5406 31.5422 54.9809 32.5015 55.0363 33.5203H55.2871C55.9489 33.5312 56.5799 33.8026 57.0441 34.2758C57.5083 34.7491 57.7684 35.3863 57.7684 36.0501C57.7684 36.7139 57.5083 37.3512 57.0441 37.8244C56.5799 38.2977 55.9489 38.569 55.2871 38.58ZM46.866 32.5084C46.1397 32.523 45.448 32.8226 44.9395 33.3428C44.431 33.8631 44.1462 34.5626 44.1462 35.2912C44.1462 36.0197 44.431 36.7192 44.9395 37.2395C45.448 37.7598 46.1397 38.0594 46.866 38.074H55.2871C55.8151 38.063 56.3178 37.845 56.6873 37.4666C57.0569 37.0883 57.2639 36.5798 57.2639 36.0501C57.2639 35.5205 57.0569 35.012 56.6873 34.6336C56.3178 34.2552 55.8151 34.0372 55.2871 34.0263H54.7917C54.7248 34.0263 54.6606 33.9996 54.6133 33.9522C54.566 33.9047 54.5394 33.8404 54.5394 33.7733C54.5474 32.8434 54.1874 31.9484 53.5382 31.2844C52.889 30.6204 52.0037 30.2418 51.0765 30.2315C50.3985 30.2351 49.7365 30.4383 49.1726 30.8158C48.6087 31.1933 48.1677 31.7286 47.9044 32.3552C47.8849 32.4006 47.8526 32.4394 47.8114 32.4666C47.7702 32.4938 47.7219 32.5084 47.6726 32.5084H46.866Z" fill="#3B0069"/>
<path d="M83.4165 33.7876L83.2199 33.3217C83.6015 33.1599 83.9376 32.9064 84.1983 32.5835C84.4591 32.2606 84.6365 31.8783 84.715 31.4703C84.7935 31.0623 84.7706 30.6412 84.6483 30.2442C84.526 29.8472 84.3082 29.4865 84.0139 29.194C83.7197 28.9015 83.3582 28.6861 82.9612 28.5669C82.5643 28.4478 82.1443 28.4285 81.7381 28.5107C81.332 28.5929 80.9523 28.7742 80.6326 29.0385C80.3129 29.3028 80.0631 29.642 79.9051 30.0261L79.4387 29.8331C79.6283 29.3722 79.9281 28.9652 80.3118 28.6481C80.6954 28.331 81.151 28.1135 81.6383 28.0148C82.1256 27.9161 82.6297 27.9392 83.1059 28.0822C83.5822 28.2252 84.016 28.4836 84.3691 28.8346C84.7222 29.1856 84.9836 29.6184 85.1304 30.0948C85.2771 30.5712 85.3046 31.0764 85.2105 31.566C85.1163 32.0555 84.9034 32.5143 84.5905 32.9018C84.2776 33.2892 83.8744 33.5935 83.4165 33.7876Z" fill="#3B0069"/>
<path d="M83.7929 38.58H75.3719C74.5117 38.5654 73.6917 38.2125 73.0886 37.5973C72.4855 36.9821 72.1475 36.1539 72.1475 35.2912C72.1475 34.4284 72.4855 33.6002 73.0886 32.9851C73.6917 32.3699 74.5117 32.017 75.3719 32.0024H76.0159C76.3354 31.3239 76.8399 30.75 77.471 30.3471C78.1022 29.9441 78.8342 29.7286 79.5824 29.7255C80.5997 29.7349 81.5754 30.1324 82.3109 30.8373C83.0464 31.5422 83.4867 32.5015 83.5422 33.5203H83.7929C84.4548 33.5312 85.0858 33.8026 85.55 34.2758C86.0142 34.7491 86.2743 35.3863 86.2743 36.0501C86.2743 36.7139 86.0142 37.3512 85.55 37.8244C85.0858 38.2977 84.4548 38.569 83.7929 38.58ZM75.3719 32.5084C74.6456 32.523 73.9539 32.8226 73.4454 33.3428C72.9369 33.8631 72.6521 34.5626 72.6521 35.2912C72.6521 36.0197 72.9369 36.7192 73.4454 37.2395C73.9539 37.7598 74.6456 38.0594 75.3719 38.074H83.7929C84.3209 38.063 84.8236 37.845 85.1932 37.4666C85.5627 37.0883 85.7697 36.5798 85.7697 36.0501C85.7697 35.5205 85.5627 35.012 85.1932 34.6336C84.8236 34.2552 84.3209 34.0372 83.7929 34.0263H83.2976C83.2307 34.0263 83.1665 33.9996 83.1192 33.9522C83.0719 33.9047 83.0453 33.8404 83.0453 33.7733C83.0533 32.8434 82.6932 31.9484 82.044 31.2844C81.3949 30.6204 80.5096 30.2418 79.5824 30.2315C78.9044 30.2351 78.2424 30.4383 77.6784 30.8158C77.1145 31.1933 76.6736 31.7286 76.4103 32.3552C76.3908 32.4006 76.3584 32.4394 76.3172 32.4666C76.276 32.4938 76.2278 32.5084 76.1784 32.5084H75.3719Z" fill="#3B0069"/>
<path d="M112.299 37.315H111.286C111.219 37.315 111.155 37.2884 111.108 37.2409C111.061 37.1935 111.034 37.1291 111.034 37.062C111.034 36.995 111.061 36.9306 111.108 36.8832C111.155 36.8357 111.219 36.8091 111.286 36.8091H112.299C112.827 36.7981 113.329 36.5801 113.699 36.2017C114.069 35.8234 114.276 35.3148 114.276 34.7852C114.276 34.2556 114.069 33.747 113.699 33.3687C113.329 32.9903 112.827 32.7723 112.299 32.7613H111.803C111.736 32.7613 111.672 32.7347 111.625 32.6872C111.578 32.6398 111.551 32.5754 111.551 32.5083C111.559 31.5785 111.199 30.6834 110.55 30.0195C109.901 29.3555 109.015 28.9769 108.088 28.9666C107.41 28.9702 106.748 29.1734 106.184 29.5509C105.62 29.9284 105.179 30.4637 104.916 31.0903C104.897 31.1357 104.864 31.1745 104.823 31.2017C104.782 31.2289 104.734 31.2434 104.684 31.2434H103.878C103.151 31.258 102.46 31.5576 101.951 32.0779C101.443 32.5982 101.158 33.2977 101.158 34.0262C101.158 34.7548 101.443 35.4543 101.951 35.9746C102.46 36.4949 103.151 36.7945 103.878 36.8091H104.66C104.727 36.8091 104.791 36.8357 104.838 36.8832C104.885 36.9306 104.912 36.995 104.912 37.062C104.912 37.1291 104.885 37.1935 104.838 37.2409C104.791 37.2884 104.727 37.315 104.66 37.315H103.878C103.018 37.3004 102.198 36.9475 101.594 36.3324C100.991 35.7172 100.653 34.889 100.653 34.0262C100.653 33.1635 100.991 32.3353 101.594 31.7201C102.198 31.105 103.018 30.7521 103.878 30.7375H104.522C104.841 30.059 105.346 29.4851 105.977 29.0821C106.608 28.6792 107.34 28.4637 108.088 28.4606C109.106 28.47 110.081 28.8675 110.817 29.5724C111.552 30.2773 111.993 31.2366 112.048 32.2554H112.299C112.961 32.2663 113.592 32.5377 114.056 33.0109C114.52 33.4841 114.78 34.1214 114.78 34.7852C114.78 35.449 114.52 36.0863 114.056 36.5595C113.592 37.0327 112.961 37.3041 112.299 37.315Z" fill="#3B0069"/>
<path d="M108.046 38.4071C107.98 38.4071 107.915 38.3805 107.868 38.333C107.821 38.2856 107.794 38.2213 107.794 38.1542V35.2449C107.794 35.1778 107.821 35.1134 107.868 35.066C107.915 35.0185 107.98 34.9919 108.046 34.9919C108.113 34.9919 108.178 35.0185 108.225 35.066C108.272 35.1134 108.299 35.1778 108.299 35.2449V38.1542C108.299 38.2213 108.272 38.2856 108.225 38.333C108.178 38.3805 108.113 38.4071 108.046 38.4071Z" fill="#3B0069"/>
<path d="M106.281 39.925C106.214 39.925 106.15 39.8984 106.102 39.8509C106.055 39.8035 106.028 39.7392 106.028 39.6721V36.7627C106.028 36.6957 106.055 36.6313 106.102 36.5839C106.15 36.5364 106.214 36.5098 106.281 36.5098C106.347 36.5098 106.412 36.5364 106.459 36.5839C106.506 36.6313 106.533 36.6957 106.533 36.7627V39.6721C106.533 39.7392 106.506 39.8035 106.459 39.8509C106.412 39.8984 106.347 39.925 106.281 39.925Z" fill="#3B0069"/>
<path d="M109.812 40.684C109.745 40.684 109.681 40.6573 109.634 40.6099C109.587 40.5624 109.56 40.4981 109.56 40.431V37.5217C109.56 37.4546 109.587 37.3902 109.634 37.3428C109.681 37.2954 109.745 37.2687 109.812 37.2687C109.879 37.2687 109.943 37.2954 109.991 37.3428C110.038 37.3902 110.065 37.4546 110.065 37.5217V40.431C110.065 40.4981 110.038 40.5624 109.991 40.6099C109.943 40.6573 109.879 40.684 109.812 40.684Z" fill="#3B0069"/>
<path d="M140.805 37.315H139.792C139.725 37.315 139.661 37.2884 139.614 37.2409C139.566 37.1935 139.54 37.1291 139.54 37.062C139.54 36.995 139.566 36.9306 139.614 36.8832C139.661 36.8357 139.725 36.8091 139.792 36.8091H140.805C141.333 36.7981 141.835 36.5801 142.205 36.2017C142.574 35.8234 142.781 35.3148 142.781 34.7852C142.781 34.2556 142.574 33.747 142.205 33.3687C141.835 32.9903 141.333 32.7723 140.805 32.7613H140.309C140.242 32.7613 140.178 32.7347 140.131 32.6872C140.084 32.6398 140.057 32.5754 140.057 32.5083C140.065 31.5785 139.705 30.6834 139.056 30.0195C138.407 29.3555 137.521 28.9769 136.594 28.9666C135.916 28.9702 135.254 29.1734 134.69 29.5509C134.126 29.9284 133.685 30.4637 133.422 31.0903C133.402 31.1357 133.37 31.1745 133.329 31.2017C133.288 31.2289 133.239 31.2434 133.19 31.2434H132.384C131.657 31.258 130.966 31.5576 130.457 32.0779C129.949 32.5982 129.664 33.2977 129.664 34.0262C129.664 34.7548 129.949 35.4543 130.457 35.9746C130.966 36.4949 131.657 36.7945 132.384 36.8091H133.166C133.233 36.8091 133.297 36.8357 133.344 36.8832C133.391 36.9306 133.418 36.995 133.418 37.062C133.418 37.1291 133.391 37.1935 133.344 37.2409C133.297 37.2884 133.233 37.315 133.166 37.315H132.384C131.523 37.3004 130.703 36.9475 130.1 36.3324C129.497 35.7172 129.159 34.889 129.159 34.0262C129.159 33.1635 129.497 32.3353 130.1 31.7201C130.703 31.105 131.523 30.7521 132.384 30.7375H133.028C133.347 30.059 133.852 29.4851 134.483 29.0821C135.114 28.6792 135.846 28.4637 136.594 28.4606C137.611 28.47 138.587 28.8675 139.323 29.5724C140.058 30.2773 140.498 31.2366 140.554 32.2554H140.805C141.466 32.2663 142.098 32.5377 142.562 33.0109C143.026 33.4841 143.286 34.1214 143.286 34.7852C143.286 35.449 143.026 36.0863 142.562 36.5595C142.098 37.0327 141.466 37.3041 140.805 37.315Z" fill="#3B0069"/>
<path d="M136.16 36.6826C136.473 36.6826 136.727 36.4277 136.727 36.1134C136.727 35.799 136.473 35.5442 136.16 35.5442C135.846 35.5442 135.592 35.799 135.592 36.1134C135.592 36.4277 135.846 36.6826 136.16 36.6826Z" fill="#3B0069"/>
<path d="M138.051 37.4415C138.365 37.4415 138.619 37.1867 138.619 36.8723C138.619 36.5579 138.365 36.3031 138.051 36.3031C137.738 36.3031 137.484 36.5579 137.484 36.8723C137.484 37.1867 137.738 37.4415 138.051 37.4415Z" fill="#3B0069"/>
<path d="M134.898 38.327C135.212 38.327 135.466 38.0721 135.466 37.7577C135.466 37.4434 135.212 37.1885 134.898 37.1885C134.585 37.1885 134.331 37.4434 134.331 37.7577C134.331 38.0721 134.585 38.327 134.898 38.327Z" fill="#3B0069"/>
<path d="M136.916 39.5919C137.23 39.5919 137.484 39.337 137.484 39.0227C137.484 38.7083 137.23 38.4535 136.916 38.4535C136.603 38.4535 136.349 38.7083 136.349 39.0227C136.349 39.337 136.603 39.5919 136.916 39.5919Z" fill="#3B0069"/>
<path d="M29.5149 18.0883H14.8836C14.3484 18.0883 13.835 17.8751 13.4566 17.4955C13.0781 17.116 12.8655 16.6012 12.8655 16.0644C12.8655 15.5277 13.0781 15.0129 13.4566 14.6333C13.835 14.2538 14.3484 14.0406 14.8836 14.0406H29.5149C30.0501 14.0406 30.5635 14.2538 30.9419 14.6333C31.3204 15.0129 31.533 15.5277 31.533 16.0644C31.533 16.6012 31.3204 17.116 30.9419 17.4955C30.5635 17.8751 30.0501 18.0883 29.5149 18.0883Z" fill="#8263FF"/>
<path d="M58.0208 18.0883H43.3894C42.8542 18.0883 42.3409 17.8751 41.9624 17.4955C41.584 17.116 41.3713 16.6012 41.3713 16.0644C41.3713 15.5277 41.584 15.0129 41.9624 14.6333C42.3409 14.2538 42.8542 14.0406 43.3894 14.0406H58.0208C58.556 14.0406 59.0693 14.2538 59.4478 14.6333C59.8262 15.0129 60.0389 15.5277 60.0389 16.0644C60.0389 16.6012 59.8262 17.116 59.4478 17.4955C59.0693 17.8751 58.556 18.0883 58.0208 18.0883Z" fill="#8263FF"/>
<path d="M86.5266 18.0883H71.8953C71.3601 18.0883 70.8468 17.8751 70.4683 17.4955C70.0898 17.116 69.8772 16.6012 69.8772 16.0644C69.8772 15.5277 70.0898 15.0129 70.4683 14.6333C70.8468 14.2538 71.3601 14.0406 71.8953 14.0406H86.5266C87.0619 14.0406 87.5752 14.2538 87.9536 14.6333C88.3321 15.0129 88.5447 15.5277 88.5447 16.0644C88.5447 16.6012 88.3321 17.116 87.9536 17.4955C87.5752 17.8751 87.0619 18.0883 86.5266 18.0883Z" fill="#8263FF"/>
<path d="M115.162 18H101.838C101.35 18 100.883 17.7893 100.538 17.4142C100.194 17.0391 100 16.5304 100 16C100 15.4696 100.194 14.9609 100.538 14.5858C100.883 14.2107 101.35 14 101.838 14H115.162C115.65 14 116.117 14.2107 116.462 14.5858C116.806 14.9609 117 15.4696 117 16C117 16.5304 116.806 17.0391 116.462 17.4142C116.117 17.7893 115.65 18 115.162 18Z" fill="#8263FF"/>
<path d="M143.538 18.0883H128.907C128.372 18.0883 127.858 17.8751 127.48 17.4955C127.101 17.116 126.889 16.6012 126.889 16.0644C126.889 15.5277 127.101 15.0129 127.48 14.6333C127.858 14.2538 128.372 14.0406 128.907 14.0406H143.538C144.073 14.0406 144.587 14.2538 144.965 14.6333C145.344 15.0129 145.556 15.5277 145.556 16.0644C145.556 16.6012 145.344 17.116 144.965 17.4955C144.587 17.8751 144.073 18.0883 143.538 18.0883Z" fill="#8263FF"/>
<path d="M35.8215 41.8687C35.7546 41.8687 35.6904 41.8421 35.6431 41.7946C35.5958 41.7472 35.5692 41.6829 35.5692 41.6158V22.389C35.5692 22.3219 35.5958 22.2576 35.6431 22.2101C35.6904 22.1627 35.7546 22.136 35.8215 22.136C35.8884 22.136 35.9525 22.1627 35.9999 22.2101C36.0472 22.2576 36.0737 22.3219 36.0737 22.389V41.6158C36.0737 41.6829 36.0472 41.7472 35.9999 41.7946C35.9525 41.8421 35.8884 41.8687 35.8215 41.8687Z" fill="#E6E6E6"/>
<path d="M64.3274 41.6158C64.2604 41.6158 64.1963 41.5891 64.149 41.5417C64.1016 41.4942 64.0751 41.4299 64.0751 41.3628V22.136C64.0751 22.0689 64.1016 22.0046 64.149 21.9572C64.1963 21.9097 64.2604 21.8831 64.3274 21.8831C64.3943 21.8831 64.4584 21.9097 64.5057 21.9572C64.5531 22.0046 64.5796 22.0689 64.5796 22.136V41.3628C64.5796 41.4299 64.5531 41.4942 64.5057 41.5417C64.4584 41.5891 64.3943 41.6158 64.3274 41.6158Z" fill="#E6E6E6"/>
<path d="M94.3467 41.6158C94.2798 41.6158 94.2157 41.5891 94.1684 41.5417C94.1211 41.4942 94.0945 41.4299 94.0945 41.3628V22.136C94.0945 22.0689 94.1211 22.0046 94.1684 21.9572C94.2157 21.9097 94.2798 21.8831 94.3467 21.8831C94.4136 21.8831 94.4778 21.9097 94.5251 21.9572C94.5724 22.0046 94.599 22.0689 94.599 22.136V41.3628C94.599 41.4299 94.5724 41.4942 94.5251 41.5417C94.4778 41.5891 94.4136 41.6158 94.3467 41.6158Z" fill="#E6E6E6"/>
<path d="M122.853 41.6158C122.786 41.6158 122.722 41.5891 122.674 41.5417C122.627 41.4942 122.6 41.4299 122.6 41.3628V22.136C122.6 22.0689 122.627 22.0046 122.674 21.9572C122.722 21.9097 122.786 21.8831 122.853 21.8831C122.919 21.8831 122.984 21.9097 123.031 21.9572C123.078 22.0046 123.105 22.0689 123.105 22.136V41.3628C123.105 41.4299 123.078 41.4942 123.031 41.5417C122.984 41.5891 122.919 41.6158 122.853 41.6158Z" fill="#E6E6E6"/>
<path d="M227.748 106H131.635C131.568 106 131.504 105.973 131.457 105.926C131.409 105.878 131.383 105.814 131.383 105.747C131.383 105.68 131.409 105.616 131.457 105.568C131.504 105.521 131.568 105.494 131.635 105.494H227.748C227.815 105.494 227.879 105.521 227.926 105.568C227.973 105.616 228 105.68 228 105.747C228 105.814 227.973 105.878 227.926 105.926C227.879 105.973 227.815 106 227.748 106Z" fill="#3F3D56"/>
</svg>
